Coordinates
version=1
nRows=30
nColumns=38
inDegrees=no

Units are S.I. units (second, meters, Newtons, ...)
If the header above contains a line with 'inDegrees', this indicates whether rotational values are in degrees (yes) or radians (no).

endheader
time	pelvis_tilt	pelvis_list	pelvis_rotation	pelvis_tx	pelvis_ty	pelvis_tz	hip_flexion_r	hip_adduction_r	hip_rotation_r	knee_angle_r	ankle_angle_r	subtalar_angle_r	mtp_angle_r	hip_flexion_l	hip_adduction_l	hip_rotation_l	knee_angle_l	ankle_angle_l	subtalar_angle_l	mtp_angle_l	lumbar_extension	lumbar_bending	lumbar_rotation	arm_flex_r	arm_add_r	arm_rot_r	elbow_flex_r	pro_sup_r	wrist_flex_r	wrist_dev_r	arm_flex_l	arm_add_l	arm_rot_l	elbow_flex_l	pro_sup_l	wrist_flex_l	wrist_dev_l
0.62	-0.630688	1.42085	-1.0217	0.99113	0.621475	0.963484	-0.0603887	0.131252	-0.124308	0.143809	0.00244378	0	0	0.288978	-0.19113	-0.038106	1.31592	-0.06692	0	0	-0.22369	0.118097	-0.0619386	-0.229046	-0.0914803	-0.595405	0.347322	1.11892	0	0	-0.0882641	-0.297975	0.667245	0.658027	0.664229	0	0
0.63	-0.598484	1.42106	-1.06384	0.989429	0.613354	0.964391	-0.0779533	0.127547	-0.109446	0.134422	0.00288145	0	0	0.301449	-0.186522	-0.0437089	1.29811	-0.0575911	0	0	-0.229829	0.112664	-0.0560194	-0.227124	-0.0922225	-0.593207	0.352278	1.1171	0	0	-0.0934655	-0.296871	0.659303	0.65992	0.670137	0	0
0.64	-0.56718	1.42126	-1.1047	0.987758	0.605312	0.965174	-0.0947348	0.12354	-0.0954975	0.125739	0.0032901	0	0	0.313132	-0.182619	-0.0497722	1.27724	-0.0474208	0	0	-0.235705	0.107037	-0.0507112	-0.223946	-0.0930626	-0.589915	0.355793	1.11475	0	0	-0.0981933	-0.295786	0.651738	0.661478	0.676534	0	0
0.65	-0.536845	1.42144	-1.14346	0.986215	0.597355	0.965828	-0.11102	0.119415	-0.0827228	0.117	0.00311784	0	0	0.324186	-0.178901	-0.0556787	1.25301	-0.0375723	0	0	-0.241426	0.101465	-0.0466699	-0.219698	-0.0940363	-0.584944	0.358434	1.11132	0	0	-0.1023	-0.294893	0.644964	0.662572	0.681529	0	0
0.66	-0.510251	1.42151	-1.17836	0.984695	0.589407	0.966375	-0.127091	0.115706	-0.0698734	0.107927	0.00224499	0	0	0.334008	-0.17682	-0.0632235	1.22534	-0.0280121	0	0	-0.246707	0.0962085	-0.0427983	-0.215024	-0.0950447	-0.57867	0.36054	1.10729	0	0	-0.105955	-0.294171	0.639684	0.663072	0.684055	0	0
0.67	-0.486727	1.42152	-1.21022	0.983121	0.581462	0.966824	-0.142538	0.11222	-0.0570896	0.0994999	0.00156918	0	0	0.342251	-0.176209	-0.0728704	1.194	-0.0189395	0	0	-0.251647	0.0911187	-0.0388306	-0.209926	-0.0959157	-0.571606	0.362042	1.10352	0	0	-0.109044	-0.293738	0.636116	0.662883	0.685049	0	0
0.68	-0.464205	1.42158	-1.2405	0.981667	0.573617	0.967168	-0.156686	0.108421	-0.0457634	0.0926747	0.00173824	0	0	0.349307	-0.175999	-0.0835662	1.15928	-0.0105493	0	0	-0.256609	0.0861108	-0.0353621	-0.203708	-0.096371	-0.566197	0.362278	1.10114	0	0	-0.11097	-0.293448	0.634386	0.661852	0.684476	0	0
0.69	-0.440845	1.42159	-1.27139	0.98027	0.565808	0.967425	-0.170233	0.104124	-0.0347158	0.0868961	0.00278845	0	0	0.354262	-0.175915	-0.0958602	1.12082	-0.00221673	0	0	-0.261724	0.080856	-0.0319508	-0.197301	-0.0963283	-0.561343	0.362411	1.09868	0	0	-0.112161	-0.293579	0.634074	0.660716	0.682651	0	0
0.7	-0.417827	1.42155	-1.30229	0.978839	0.557954	0.967585	-0.183195	0.0995223	-0.0239521	0.0822347	0.0047783	0	0	0.356894	-0.176354	-0.1105	1.07876	0.00582331	0	0	-0.266798	0.0754667	-0.0277283	-0.191532	-0.0958494	-0.55681	0.363451	1.09604	0	0	-0.112522	-0.293897	0.635339	0.659072	0.679835	0	0
0.71	-0.397224	1.42157	-1.32992	0.977481	0.55013	0.967627	-0.195302	0.095151	-0.0144875	0.078613	0.00753301	0	0	0.358258	-0.1774	-0.127231	1.03347	0.0131039	0	0	-0.271733	0.0704396	-0.024147	-0.185848	-0.09491	-0.552336	0.364777	1.09391	0	0	-0.112439	-0.294807	0.637555	0.657794	0.676871	0	0
0.72	-0.379402	1.42167	-1.35435	0.976218	0.542308	0.967564	-0.207189	0.0911449	-0.00529125	0.0750357	0.010339	0	0	0.358122	-0.179021	-0.146526	0.985106	0.0195897	0	0	-0.276403	0.0658202	-0.0207505	-0.180664	-0.093652	-0.548083	0.366567	1.09258	0	0	-0.111953	-0.295921	0.640451	0.656476	0.673737	0	0
0.73	-0.363147	1.42187	-1.37666	0.975002	0.534395	0.967385	-0.21902	0.0871991	0.00339805	0.0712461	0.0130437	0	0	0.356504	-0.180477	-0.167646	0.93419	0.0255493	0	0	-0.280686	0.0614449	-0.0176444	-0.175714	-0.092059	-0.546117	0.367874	1.09331	0	0	-0.111298	-0.297176	0.64345	0.65536	0.670656	0	0
0.74	-0.349149	1.42229	-1.39627	0.973905	0.526369	0.967068	-0.230557	0.0833223	0.01153	0.0673625	0.0160486	0	0	0.353777	-0.18158	-0.190284	0.881201	0.0305887	0	0	-0.284476	0.0574691	-0.0144996	-0.171747	-0.0903443	-0.54454	0.369859	1.09497	0	0	-0.110377	-0.298301	0.646522	0.653937	0.667773	0	0
0.75	-0.338389	1.42286	-1.41224	0.972905	0.518251	0.966622	-0.24178	0.0797732	0.0185808	0.0639741	0.0195837	0	0	0.350089	-0.182297	-0.214466	0.826369	0.0347923	0	0	-0.287842	0.0540799	-0.011266	-0.16888	-0.0886692	-0.541898	0.372562	1.09559	0	0	-0.109364	-0.299411	0.649552	0.652719	0.664571	0	0
0.76	-0.340797	1.42367	-1.41904	0.972923	0.51017	0.966046	-0.253367	0.0742427	0.0223581	0.0567945	0.0244797	0	0	0.347286	-0.169678	-0.231162	0.772535	0.0296205	0	0	-0.291253	0.0538389	-0.00669885	-0.165094	-0.0891484	-0.539631	0.376225	1.09568	0	0	-0.109877	-0.298792	0.651242	0.652612	0.662197	0	0
0.77	-0.331369	1.4247	-1.43005	0.972322	0.501855	0.965365	-0.26362	0.0709536	0.024008	0.0544362	0.0303308	0	0	0.343662	-0.168777	-0.254356	0.715917	0.032205	0	0	-0.293735	0.0513723	-0.00680717	-0.163091	-0.0870217	-0.538744	0.379528	1.09534	0	0	-0.109515	-0.300092	0.651665	0.652718	0.660466	0	0
0.78	-0.322259	1.42607	-1.43971	0.971886	0.493387	0.964561	-0.274608	0.0678399	0.0261257	0.0501636	0.0352652	0	0	0.339877	-0.166757	-0.278262	0.659193	0.0346173	0	0	-0.295562	0.0492946	-0.00781786	-0.162154	-0.0849911	-0.53666	0.38382	1.08978	0	0	-0.109587	-0.301104	0.650737	0.652742	0.660912	0	0
0.79	-0.307937	1.42726	-1.45364	0.971739	0.484724	0.963714	-0.289847	0.0643888	0.0342779	0.0384593	0.0351687	0	0	0.334848	-0.162319	-0.303146	0.601862	0.0359641	0	0	-0.297372	0.0470316	-0.00976087	-0.162248	-0.0832912	-0.532453	0.388881	1.07731	0	0	-0.10971	-0.301516	0.649384	0.651752	0.660902	0	0
0.8	-0.310548	1.43033	-1.45098	0.971491	0.476099	0.962554	-0.292691	0.0620439	0.027181	0.0462418	0.0459069	0	0	0.333437	-0.160129	-0.327191	0.548962	0.0384187	0	0	-0.296756	0.046967	-0.0106007	-0.162307	-0.0813612	-0.532001	0.393025	1.07463	0	0	-0.109813	-0.301671	0.64835	0.650167	0.659985	0	0
0.81	-0.292603	1.43202	-1.46934	0.971443	0.467213	0.961562	-0.300703	0.0568685	0.0243436	0.0480573	0.0537543	0	0	0.32719	-0.152847	-0.352782	0.492809	0.0406004	0	0	-0.297677	0.0441513	-0.0112465	-0.163506	-0.0793535	-0.53065	0.39954	1.0735	0	0	-0.109608	-0.301536	0.647269	0.648105	0.659396	0	0
0.82	-0.268466	1.43375	-1.49267	0.971621	0.458124	0.96053	-0.309272	0.0510491	0.0209508	0.0492084	0.0609229	0	0	0.32042	-0.142353	-0.375423	0.437181	0.0439578	0	0	-0.298086	0.0407926	-0.0132739	-0.165234	-0.0771891	-0.529914	0.407136	1.0743	0	0	-0.109715	-0.301299	0.645792	0.645812	0.659144	0	0
0.83	-0.238204	1.43548	-1.52146	0.971948	0.44891	0.959493	-0.315506	0.0442652	0.0136387	0.0551155	0.0703517	0	0	0.312813	-0.128736	-0.393569	0.381526	0.0478724	0	0	-0.298221	0.0367388	-0.0159463	-0.16751	-0.0748616	-0.529784	0.41539	1.07548	0	0	-0.109837	-0.300889	0.643856	0.642778	0.658839	0	0
0.84	-0.20114	1.4373	-1.55686	0.972413	0.439617	0.958419	-0.319322	0.0364228	0.00319218	0.0653804	0.0817428	0	0	0.304364	-0.112084	-0.405057	0.325605	0.0517459	0	0	-0.297952	0.0318575	-0.0189014	-0.170158	-0.0725063	-0.529946	0.424031	1.07526	0	0	-0.110021	-0.300359	0.64189	0.639068	0.658921	0	0
0.85	-0.150682	1.4384	-1.60648	0.972928	0.430159	0.957397	-0.321507	0.0262064	-0.0111929	0.0803523	0.0961013	0	0	0.291705	-0.0907922	-0.406357	0.264274	0.0522973	0	0	-0.297757	0.0249561	-0.0215332	-0.173472	-0.0700528	-0.529328	0.433467	1.07242	0	0	-0.110548	-0.299573	0.639178	0.63439	0.659431	0	0
0.86	-0.102013	1.43936	-1.65463	0.973434	0.420468	0.956324	-0.323879	0.0163397	-0.0245814	0.0951559	0.109694	0	0	0.277339	-0.0686905	-0.397906	0.201896	0.0503796	0	0	-0.296751	0.018278	-0.0237928	-0.177644	-0.0681919	-0.525512	0.442993	1.07001	0	0	-0.111812	-0.298555	0.636465	0.628752	0.658951	0	0
0.87	-0.0591058	1.43968	-1.697	0.973942	0.410562	0.955276	-0.327288	0.00707909	-0.0353061	0.109101	0.121632	0	0	0.260732	-0.0470058	-0.378367	0.139395	0.043926	0	0	-0.295755	0.012333	-0.0258734	-0.18218	-0.0667908	-0.520824	0.45298	1.06961	0	0	-0.113591	-0.297615	0.634311	0.623101	0.655256	0	0
0.88	-0.0255397	1.44018	-1.73093	0.974249	0.40042	0.954165	-0.330797	-0.000752895	-0.0441542	0.122895	0.132358	0	0	0.244602	-0.0289413	-0.353268	0.0832001	0.0357697	0	0	-0.293765	0.00717087	-0.0266903	-0.187118	-0.0655932	-0.51838	0.462331	1.07258	0	0	-0.116203	-0.296931	0.631915	0.618909	0.652686	0	0
0.89	-0.00130899	1.4414	-1.75626	0.974384	0.390109	0.952939	-0.332852	-0.00718016	-0.0528761	0.138479	0.142889	0	0	0.232729	-0.0157472	-0.330033	0.0408108	0.0300125	0	0	-0.29052	0.00293187	-0.0261878	-0.192791	-0.0646678	-0.517273	0.470668	1.07805	0	0	-0.119718	-0.296392	0.628753	0.615505	0.651237	0	0
0.9	0.0117747	1.44374	-1.76998	0.974481	0.379838	0.951637	-0.333988	-0.0114741	-0.0592384	0.153495	0.150961	0	0	0.231082	-0.00879695	-0.318708	0.0241081	0.0334426	0	0	-0.286375	0.000246302	-0.0255178	-0.198348	-0.0643438	-0.515645	0.476939	1.08126	0	0	-0.123153	-0.296312	0.627175	0.611891	0.649262	0	0
0.91	0.0285607	1.44528	-1.78794	0.97451	0.369444	0.950453	-0.334496	-0.016958	-0.0674925	0.171561	0.159804	0	0	0.23361	-0.00384571	-0.314115	0.0242996	0.0378812	0	0	-0.282794	-0.0035306	-0.024173	-0.204729	-0.0637738	-0.514424	0.483687	1.08345	0	0	-0.126628	-0.296503	0.625891	0.607798	0.645541	0	0
